<svg version="1.1" xmlns="http://www.w3.org/2000/svg" xmlns:xlink="http://www.w3.org/1999/xlink" width="174.7743" height="196.59238" viewBox="0,0,174.7743,196.59238"><g transform="translate(-157.794,-32.91957)"><g data-paper-data="{&quot;isPaintingLayer&quot;:true}" fill-rule="nonzero" stroke="none" stroke-width="0.5" stroke-linecap="butt" stroke-linejoin="miter" stroke-miterlimit="10" stroke-dasharray="" stroke-dashoffset="0" style="mix-blend-mode: normal"><path d="M209.05104,204.04753c0.0009,-0.00864 0.0018,-0.01727 0.00271,-0.02591c-0.00999,-0.09079 -0.01511,-0.18304 -0.01511,-0.27649c0,-0.30343 0.05406,-0.59423 0.15306,-0.86331c1.51807,-11.07551 8.31373,-23.1548 19.08008,-27.37209c4.93044,-1.93131 9.77964,-1.82265 14.95862,-1.82265c5.11265,0 8.4133,-0.27241 13.07286,1.97299c3.01699,1.91847 5.59847,4.00247 6.45868,7.72428c0.40504,1.7525 -0.2059,3.64961 0.24669,5.39043c0.09616,0.36986 1.4524,3.19307 1.83134,3.55726c0.69334,0.66635 1.83581,0.82122 2.40112,1.59914c1.8188,2.50285 1.60972,6.37427 1.90125,9.2896l0.15969,0.28493c0,0 0.35026,1.05078 -0.11492,1.98665c0.25392,6.54988 0.96438,13.90315 -2.61702,19.41956c-0.62603,0.96427 -1.02561,2.16221 -1.95137,2.84389c-8.09325,5.95941 -16.3578,-4.66758 -19.47988,-10.74575c-0.62145,-1.20986 -1.19256,-2.4609 -1.55957,-3.77058c-0.50866,-1.81516 -0.62803,-3.13682 -0.64937,-4.58424l-0.6773,0.06699c-3.01383,0 -6.0073,0.18259 -9.01809,0.25218c-1.78633,4.18839 -3.02546,9.94552 -6.56584,12.92842c-4.15782,3.50311 -14.57481,3.02336 -16.9236,-2.68458c-0.46,-1.11789 -0.12821,-2.41464 -0.15529,-3.62317c-0.07202,-3.2142 -0.02388,-6.43794 -0.00594,-9.656c-0.64113,-0.80832 -0.53281,-1.89156 -0.53281,-1.89156z" fill="#000000"/><path d="M194.45542,200.44301c-1.87028,-0.19508 -3.82908,0.78179 -5.63533,0.25887c-1.58832,-0.45983 -3.49538,-1.00977 -4.31607,-2.44527c-1.45189,-2.53955 1.82105,-7.81656 3.24901,-9.77066c2.80833,-3.84306 6.85871,-5.7537 10.23701,-8.89715c1.31043,-1.21934 3.99955,-2.61561 4.56885,-4.48537c0.21438,-0.70409 0.14174,-4.64699 0.14139,-4.97913c0,0 0,-2.5 2.5,-2.5c0.08823,0 0.17336,0.00311 0.25547,0.00912c0.46897,-2.03789 0.85611,-4.07606 1.12477,-6.10837c0.591,-4.47063 -0.02212,-9.48954 -0.02212,-13.99836c0.00645,-8.02119 -2.59175,-18.16236 0.76718,-25.81882c1.55426,-3.54286 4.96395,-6.15616 8.06082,-8.22764c9.06374,-6.06269 20.19893,-10.49106 30.94476,-12.26233c6.36144,-0.01542 12.42928,0.31853 18.66499,1.70533c3.38454,0.75271 6.64928,2.11126 10.07911,2.73247c4.67012,0.84585 11.91182,2.07317 15.06153,6.18152c1.57375,2.05273 1.42071,4.75704 1.33839,7.11821c-0.26272,7.53589 -1.69518,15.19908 -2.48726,22.71587c-0.66935,10.91978 -1.46489,22.02398 -2.76546,32.88837c-0.57302,4.78681 -1.70376,9.4955 -2.19995,14.28864c-0.45074,4.35411 1.591,12.12855 -3.47485,14.4573c-1.23763,0.56894 -2.72331,-0.07569 -4.08532,-0.09444c-4.74712,-0.06534 -9.47289,-0.55419 -14.2169,-0.5486c-13.04415,0 -26.0883,0 -39.13244,0c-7.45294,0 -14.97476,-0.30734 -22.40587,0.26822c0,0 -2.10043,0.16157 -2.59338,-1.74003c-0.13872,-0.03606 -0.27746,-0.07199 -0.41626,-0.10754l-0.87893,0.02038c0,0 -0.10662,-0.10662 -0.2413,-0.29367c-0.70125,-0.15946 -1.4068,-0.29235 -2.12185,-0.36693zM200.24008,184.57297c0.04666,0.03089 0.09223,0.0633 0.13662,0.09716c0.02983,-0.0927 0.0597,-0.18544 0.08961,-0.27822c-0.07604,0.06099 -0.15148,0.12135 -0.22624,0.18106z" fill="#d600ff"/><path d="M265.80621,107.58962c-0.72191,0.54883 -1.6317,0.54883 -1.6317,0.54883c-24.13591,0 -48.27246,0.05 -72.40831,-0.00852c-9.58312,-1.57891 -19.92449,-2.95408 -27.63195,-9.71453c-2.6297,-2.30659 -3.96311,-5.63976 -4.88226,-8.91024c-1.25788,-4.47571 -2.09706,-10.55134 -0.82734,-15.13116c2.26918,-8.18483 11.22316,-14.77459 17.67713,-19.43867c17.26259,-12.3651 38.26203,-20.15406 59.4973,-21.78706c6.62877,-0.50975 13.50218,-0.00877 20.14572,-0.00472c9.52626,0.89428 18.98312,3.95443 28.29473,6.12709c11.8827,2.77257 27.25862,5.12912 35.78805,14.88046c2.23495,2.55512 3.26969,6.38952 4.76766,9.38545c2.93027,7.02551 7.5409,14.7088 7.93993,22.41115c0.07378,1.42405 0.08421,6.04829 -0.62979,7.19971c-1.56957,2.53109 -7.28134,4.54047 -9.7804,5.876c-8.80364,4.70481 -18.88767,9.0693 -29.0145,9.11505c-9.12349,0 -18.19532,-0.51004 -27.30426,-0.54883z" fill="#ffc500"/><path d="M208.21189,48.86885c0,-1.38071 1.11929,-2.5 2.5,-2.5c1.38071,0 2.5,1.11929 2.5,2.5c0,1.38071 -1.11929,2.5 -2.5,2.5c-1.38071,0 -2.5,-1.11929 -2.5,-2.5z" fill="#000000"/><path d="M279.58726,50.79792c0,-1.38071 1.11929,-2.5 2.5,-2.5c1.38071,0 2.5,1.11929 2.5,2.5c0,1.38071 -1.11929,2.5 -2.5,2.5c-1.38071,0 -2.5,-1.11929 -2.5,-2.5z" fill="#000000"/><path d="M268.93927,84.88293c-0.51675,1.08874 -0.74625,2.40166 -1.61908,3.23265c-8.1994,7.80632 -18.25313,-4.79274 -19.91633,-11.97308l-0.28656,-1.42994c0,0 -0.01606,-0.08028 -0.02783,-0.21468c-10.25554,0.43845 -20.51231,0.57091 -30.86597,0.57091c0,0 -2.5,0 -2.5,-2.5c0,-2.5 2.5,-2.5 2.5,-2.5c17.09866,0 33.92868,-0.35172 50.9312,-1.8847c0.33798,-0.31424 0.81959,-0.55161 1.50586,-0.59006c0.45759,-0.0559 1.02268,-0.01694 1.54198,0.32127c0.53474,0.31322 0.82231,0.80123 0.97695,1.23551c0.24615,0.56993 0.27247,1.06311 0.17954,1.47953c-0.00765,5.1095 -0.15872,9.48878 -2.41975,14.2526z" fill="#000000"/></g></g></svg>