<svg version="1.1" xmlns="http://www.w3.org/2000/svg" xmlns:xlink="http://www.w3.org/1999/xlink" width="70.61712" height="111.89985" viewBox="0,0,70.61712,111.89985"><g transform="translate(-206.25388,-114.79169)"><g data-paper-data="{&quot;isPaintingLayer&quot;:true}" fill="#9966ff" fill-rule="nonzero" stroke="none" stroke-width="0.5" stroke-linecap="butt" stroke-linejoin="miter" stroke-miterlimit="10" stroke-dasharray="" stroke-dashoffset="0" style="mix-blend-mode: normal"><path d="M247.9862,173.55336c-1.5,2 -3.5,0.5 -3.5,0.5l-1.2293,-0.9286c-2.54953,-2.1877 -5.14204,-4.2315 -7.99292,-5.84727c-0.82121,5.99374 -1.07546,11.97556 -1.10496,18.1055c2.06067,1.14558 1.98174,3.45897 3.0613,5.71333c2.67941,5.59517 8.12868,9.99614 12.22868,14.50615c5.38615,5.38615 10.76127,10.88316 15.78021,16.61379l0.16191,0.15408c0,0 1.76777,1.76777 0,3.53553c-1.76777,1.76777 -3.53553,0 -3.53553,0l-0.38926,-0.39709c-4.96578,-5.68075 -10.30112,-11.12103 -15.63597,-16.45588c-3.72891,-4.1018 -7.7403,-7.87306 -10.97831,-12.40561c-0.77944,-1.09106 -1.56851,-2.19217 -2.14642,-3.40211c-0.4378,-0.9166 -0.5576,-1.95406 -0.87308,-2.91962c-0.07031,-0.21518 -0.06598,-0.68313 -0.28263,-0.61751c-0.34317,0.10394 -0.35652,0.63185 -0.60814,0.88731c-2.07389,2.10554 -3.78284,3.57349 -5.5051,6.04043c-4.67151,6.6914 -10.20806,12.80243 -14.53385,19.73314c0,0 -1.325,2.12 -3.44499,0.795c-2.12,-1.325 -0.795,-3.44499 -0.795,-3.44499c4.90381,-7.83611 10.84938,-15.75656 16.73961,-22.87944c1.04711,-1.26624 3.49938,-3.92987 5.75589,-5.29393c0.02896,-6.87015 0.33763,-13.57229 1.34817,-20.29333c-3.34059,2.65001 -6.0064,5.83011 -9.34904,8.69928l-1.92906,1.65348c0,0 -1.89814,1.62698 -3.52512,-0.27116c-1.62698,-1.89814 0.27116,-3.52512 0.27116,-3.52512l1.92906,-1.65348c3.18359,-2.72464 5.79425,-5.67966 8.87507,-8.27396c-5.22883,0.09302 -10.56381,-0.32066 -14.52867,-3.25546c-4.94125,-3.65753 -5.75324,-9.79027 -5.96522,-15.41245c-0.05097,-1.35178 -0.09008,-6.28058 0.43376,-7.58992c1.91133,-4.77736 6.98332,-8.953 10.56226,-12.52864c3.38404,-2.90028 7.06607,-5.73019 11.36836,-7.14738c9.54201,-3.14318 20.404,0.45407 27.79375,6.81747c4.94359,4.25699 8.43962,9.83279 10.87298,15.82495c0.33773,0.83166 0.69751,1.80979 1.0168,2.85432c0.81863,0 1.63726,0 2.45589,0l1.61731,0.40387c0,0 2.37171,0.79057 1.58114,3.16228c-0.79057,2.37171 -3.16228,1.58114 -3.16228,1.58114l-0.03617,-0.14729c-0.4992,0 -0.9984,0 -1.49759,0c0.03777,0.85683 -0.0139,1.67649 -0.18813,2.4166c-0.64621,2.74507 -2.53689,4.51249 -4.27181,6.50548c-6.80612,5.84152 -16.36153,11.12722 -25.33226,8.64249c2.44743,1.56283 4.7466,3.3798 7.01219,5.31976l0.97534,0.72488c0,0 2,1.5 0.5,3.5zM239.09668,146.44415c0,0 -2.5,0 -2.5,-2.5c0,-2.5 2.5,-2.5 2.5,-2.5c7.98203,0 15.96407,0 23.9461,0c-1.37811,-4.57606 -4.10916,-8.97326 -7.29583,-12.31415c-6.28707,-6.59132 -16.27869,-11.56538 -25.49326,-8.44709c-3.62218,1.22578 -6.71837,3.63097 -9.57577,6.08048c-3.01891,3.02184 -7.59638,6.64558 -9.27954,10.62013c-0.73301,1.73091 -0.19121,3.75967 -0.1174,5.63794c0.15603,3.97093 0.32039,8.96956 3.95568,11.59444c3.51305,2.53663 8.82213,2.54903 13.73921,2.29206c-0.49587,-0.55014 -1.2239,-1.72863 -0.1466,-3.16502c1.5,-2 3.5,-0.5 3.5,-0.5l1.37009,1.05897c0.5885,0.59071 1.14151,1.17743 1.72057,1.73197c0.41796,0.08088 0.86438,0.30183 1.31081,0.74826c0.07603,0.07603 0.14553,0.15207 0.2089,0.22796c0.30604,0.18473 0.59776,0.45288 0.79981,0.84214c7.95019,4.76936 17.46344,-0.81088 23.57402,-6.03955c0.74318,-0.84341 2.63682,-2.76264 2.89329,-3.96658c0.09856,-0.4627 -0.01137,-0.9316 -0.13047,-1.40198c-8.32653,0 -16.65306,0 -24.9796,0z"/><path d="M230.80949,129.88954c0,-1.38071 1.11929,-2.5 2.5,-2.5c1.38071,0 2.5,1.11929 2.5,2.5c0,1.38071 -1.11929,2.5 -2.5,2.5c-1.38071,0 -2.5,-1.11929 -2.5,-2.5z"/><path d="M271.871,128.78722c0,-1.38071 1.11929,-2.5 2.5,-2.5c1.38071,0 2.5,1.11929 2.5,2.5c0,1.38071 -1.11929,2.5 -2.5,2.5c-1.38071,0 -2.5,-1.11929 -2.5,-2.5z"/></g></g></svg>